<svg id="Layer_1" data-name="Layer 1" xmlns="http://www.w3.org/2000/svg" viewBox="0 0 812.25 196.01"><defs><style>.cls-1{fill:#d4642d;}.cls-2{fill:#fff;}.cls-3{fill:#49494b;}.cls-4{fill:#49494a;}</style></defs><path class="cls-1" d="M146.86,286.43a38,38,0,0,1-33.17,19.28c-21,0-38-16.79-38-37.49s17-37.49,38-37.49a37.9,37.9,0,0,1,35.62,24.64h61.18a97.62,97.62,0,0,0-96.8-85.16H35.74a19.66,19.66,0,0,0-19.66,19.66v78.74a97.62,97.62,0,0,0,97.61,97.62h0a97.62,97.62,0,0,0,96-79.8Z" transform="translate(-16.08 -170.21)"/><circle class="cls-1" cx="100" cy="98.13" r="96.11"/><path class="cls-2" d="M130.83,298H54V246.7a15,15,0,0,1,15-14.95h76.88V283A15,15,0,0,1,130.83,298Z" transform="translate(-16.08 -170.21)"/><polygon class="cls-2" points="37.87 143.55 87.15 97.13 37.87 97.92 37.87 143.55"/><path class="cls-2" d="M157.94,272.87,173.66,287a5.3,5.3,0,0,0,8.84-3.93V240.4a5.3,5.3,0,0,0-8.84-3.94L157.94,250.6A15,15,0,0,0,157.94,272.87Z" transform="translate(-16.08 -170.21)"/><circle class="cls-3" cx="64.24" cy="95.81" r="6.78"/><circle class="cls-3" cx="84.86" cy="95.81" r="6.78"/><circle class="cls-3" cx="104.49" cy="95.81" r="6.78"/><path class="cls-4" d="M251.82,349.45V193.2h24.56V349.45Z" transform="translate(-16.08 -170.21)"/><path class="cls-4" d="M401.37,349.45H377.32v-67.6a23.59,23.59,0,1,0-47.17,0v67.6h-24V235.51h24v4.64a46.37,46.37,0,0,1,23.64-6,47.92,47.92,0,0,1,47.58,47.68Z" transform="translate(-16.08 -170.21)"/><path class="cls-4" d="M416,235.51h25.29l24.25,60.07,24.36-60.07h25.39L465.56,358.33Z" transform="translate(-16.08 -170.21)"/><path class="cls-4" d="M537.29,222.09a14.56,14.56,0,1,1,10.32,4.34A14.1,14.1,0,0,1,537.29,222.09Zm-1.65,13.42h24V349.45h-24Z" transform="translate(-16.08 -170.21)"/><path class="cls-4" d="M694.37,314.57q-9.3,18.57-23.12,27.24a56.29,56.29,0,0,1-31.07,9.08q-24,0-41.28-17.13a56.26,56.26,0,0,1-17.13-41.28q0-24,17.13-41.18t41.28-17.13a56.37,56.37,0,0,1,31.07,9.08q13.83,8.67,23.12,27.14L672.18,280q-6.09-11.76-14-16.61a34.37,34.37,0,1,0,0,58.2q8-4.74,14-16.61Z" transform="translate(-16.08 -170.21)"/><path class="cls-4" d="M728.74,333.76a56.23,56.23,0,0,1-17.14-41.28q0-24,17.14-41.18A56.26,56.26,0,0,1,770,234.17q24,0,41.18,17.13t17.13,41.18a56.26,56.26,0,0,1-17.13,41.28Q794.06,350.89,770,350.89A56.26,56.26,0,0,1,728.74,333.76Zm17-65.53a34.34,34.34,0,0,0,48.51,48.61,33.42,33.42,0,0,0,10-24.36,34.3,34.3,0,0,0-58.52-24.25Z" transform="translate(-16.08 -170.21)"/></svg>